<svg width="20" height="20" viewBox="0 0 20 20" fill="none" xmlns="http://www.w3.org/2000/svg">
<path d="M6.52078 10.8333L10.6041 14.9167C10.7708 15.0833 10.8508 15.2778 10.8441 15.5C10.8375 15.7222 10.7505 15.9167 10.5833 16.0833C10.4166 16.2361 10.2222 16.3161 9.99995 16.3233C9.77773 16.3306 9.58328 16.2506 9.41662 16.0833L3.91662 10.5833C3.83328 10.5 3.77412 10.4097 3.73912 10.3125C3.70412 10.2153 3.68717 10.1111 3.68828 10C3.68939 9.88889 3.70689 9.78472 3.74078 9.6875C3.77467 9.59028 3.83356 9.5 3.91745 9.41667L9.41745 3.91667C9.57023 3.76389 9.76134 3.6875 9.99078 3.6875C10.2202 3.6875 10.418 3.76389 10.5841 3.91667C10.7508 4.08333 10.8341 4.28139 10.8341 4.51083C10.8341 4.74028 10.7508 4.93806 10.5841 5.10417L6.52078 9.16667H15.8333C16.0694 9.16667 16.2675 9.24667 16.4275 9.40667C16.5875 9.56667 16.6672 9.76444 16.6666 10C16.6661 10.2356 16.5861 10.4336 16.4266 10.5942C16.2672 10.7547 16.0694 10.8344 15.8333 10.8333H6.52078Z" fill="black"/>
</svg>
