<svg width="183" height="83" viewBox="0 0 183 83" fill="none" xmlns="http://www.w3.org/2000/svg">
<g clip-path="url(#clip0_33_8)">
<path d="M8.6175 65.0625C7.1135 65.0625 5.9615 64.6785 5.1615 63.9105C4.3935 63.1105 4.0095 61.9745 4.0095 60.5025V35.7825C4.0095 34.3105 4.3935 33.1905 5.1615 32.4225C5.9615 31.6225 7.1135 31.2225 8.6175 31.2225H18.0255C23.9135 31.2225 28.4575 32.6945 31.6575 35.6385C34.8895 38.5825 36.5055 42.7425 36.5055 48.1185C36.5055 50.8065 36.0895 53.2065 35.2575 55.3185C34.4255 57.3985 33.2255 59.1745 31.6575 60.6465C30.0895 62.0865 28.1535 63.1905 25.8495 63.9585C23.5775 64.6945 20.9695 65.0625 18.0255 65.0625H8.6175ZM12.8415 57.9105H17.4495C19.1455 57.9105 20.6015 57.7025 21.8175 57.2865C23.0655 56.8705 24.0895 56.2625 24.8895 55.4625C25.7215 54.6625 26.3295 53.6545 26.7135 52.4385C27.1295 51.2225 27.3375 49.7825 27.3375 48.1185C27.3375 44.7905 26.5215 42.3425 24.8895 40.7745C23.2575 39.1745 20.7775 38.3745 17.4495 38.3745H12.8415V57.9105ZM53.1199 65.5905C50.4959 65.5905 48.2079 65.0945 46.2559 64.1025C44.3039 63.1105 42.7839 61.6865 41.6959 59.8305C40.6079 57.9745 40.0639 55.7825 40.0639 53.2545C40.0639 51.3345 40.3679 49.6225 40.9759 48.1185C41.5839 46.5825 42.4639 45.2865 43.6159 44.2305C44.7679 43.1425 46.1439 42.3265 47.7439 41.7825C49.3439 41.2065 51.1359 40.9185 53.1199 40.9185C55.7439 40.9185 58.0319 41.4145 59.9839 42.4065C61.9359 43.3985 63.4399 44.8225 64.4959 46.6785C65.5839 48.5025 66.1279 50.6945 66.1279 53.2545C66.1279 55.1425 65.8239 56.8545 65.2159 58.3905C64.6079 59.9265 63.7279 61.2385 62.5759 62.3265C61.4559 63.3825 60.0799 64.1985 58.4479 64.7745C56.8479 65.3185 55.0719 65.5905 53.1199 65.5905ZM53.1199 59.3025C53.9839 59.3025 54.7519 59.0945 55.4239 58.6785C56.0959 58.2305 56.6079 57.5745 56.9599 56.7105C57.3439 55.8145 57.5359 54.6625 57.5359 53.2545C57.5359 51.1105 57.1199 49.5745 56.2879 48.6465C55.4559 47.6865 54.3999 47.2065 53.1199 47.2065C52.2559 47.2065 51.4879 47.4145 50.8159 47.8305C50.1439 48.2465 49.6159 48.9025 49.2319 49.7985C48.8479 50.6625 48.6559 51.8145 48.6559 53.2545C48.6559 55.3665 49.0719 56.9025 49.9039 57.8625C50.7359 58.8225 51.8079 59.3025 53.1199 59.3025ZM79.0189 65.5905C75.9469 65.5905 73.6749 64.7745 72.2029 63.1425C70.7629 61.4785 70.0429 58.9825 70.0429 55.6545V35.1105C70.0429 33.7025 70.4109 32.6305 71.1469 31.8945C71.8829 31.1585 72.9229 30.7905 74.2669 30.7905C75.6429 30.7905 76.6989 31.1585 77.4349 31.8945C78.2029 32.6305 78.5869 33.7025 78.5869 35.1105V55.3665C78.5869 56.5505 78.8109 57.4145 79.2589 57.9585C79.7389 58.5025 80.3469 58.7745 81.0829 58.7745C81.3069 58.7745 81.5309 58.7585 81.7549 58.7265C82.0109 58.6625 82.2829 58.6145 82.5709 58.5825C83.1149 58.5825 83.5149 58.7905 83.7709 59.2065C84.0589 59.6225 84.2029 60.4705 84.2029 61.7505C84.2029 62.8705 83.9789 63.7185 83.5309 64.2945C83.0829 64.8385 82.3949 65.1905 81.4669 65.3505C81.2109 65.3825 80.8429 65.4305 80.3629 65.4945C79.8829 65.5585 79.4349 65.5905 79.0189 65.5905ZM90.9544 74.1345C89.6104 74.1345 88.5704 73.7665 87.8344 73.0305C87.0984 72.2945 86.7304 71.2225 86.7304 69.8145V45.2865C86.7304 43.9105 87.0824 42.8545 87.7864 42.1185C88.5224 41.3825 89.5624 41.0145 90.9064 41.0145C92.2824 41.0145 93.3224 41.3825 94.0264 42.1185C94.7624 42.8545 95.1304 43.9105 95.1304 45.2865V48.0705L94.6024 45.7185C95.0504 44.2785 95.9784 43.1265 97.3864 42.2625C98.8264 41.3665 100.458 40.9185 102.282 40.9185C104.33 40.9185 106.122 41.4145 107.658 42.4065C109.226 43.3985 110.442 44.8065 111.306 46.6305C112.17 48.4545 112.602 50.6625 112.602 53.2545C112.602 55.7825 112.17 57.9745 111.306 59.8305C110.442 61.6865 109.226 63.1105 107.658 64.1025C106.122 65.0945 104.33 65.5905 102.282 65.5905C100.522 65.5905 98.9384 65.1745 97.5304 64.3425C96.1224 63.5105 95.1784 62.4225 94.6984 61.0785H95.2744V69.8145C95.2744 71.2225 94.8904 72.2945 94.1224 73.0305C93.3864 73.7665 92.3304 74.1345 90.9544 74.1345ZM99.5944 59.3025C100.458 59.3025 101.21 59.0945 101.85 58.6785C102.522 58.2305 103.05 57.5745 103.434 56.7105C103.818 55.8145 104.01 54.6625 104.01 53.2545C104.01 51.1105 103.594 49.5745 102.762 48.6465C101.93 47.6865 100.874 47.2065 99.5944 47.2065C98.7304 47.2065 97.9624 47.4145 97.2904 47.8305C96.6184 48.2465 96.0904 48.9025 95.7064 49.7985C95.3224 50.6625 95.1304 51.8145 95.1304 53.2545C95.1304 55.3665 95.5464 56.9025 96.3784 57.8625C97.2104 58.8225 98.2824 59.3025 99.5944 59.3025ZM120.72 65.4945C119.376 65.4945 118.336 65.1265 117.6 64.3905C116.864 63.6545 116.496 62.5825 116.496 61.1745V35.1105C116.496 33.7025 116.864 32.6305 117.6 31.8945C118.336 31.1585 119.376 30.7905 120.72 30.7905C122.096 30.7905 123.152 31.1585 123.888 31.8945C124.656 32.6305 125.04 33.7025 125.04 35.1105V45.5745H124.272C125.04 44.0705 126.128 42.9185 127.536 42.1185C128.976 41.3185 130.608 40.9185 132.432 40.9185C134.32 40.9185 135.872 41.2865 137.088 42.0225C138.304 42.7265 139.216 43.8465 139.824 45.3825C140.432 46.8865 140.736 48.7905 140.736 51.0945V61.1745C140.736 62.5825 140.368 63.6545 139.632 64.3905C138.896 65.1265 137.84 65.4945 136.464 65.4945C135.088 65.4945 134.032 65.1265 133.296 64.3905C132.56 63.6545 132.192 62.5825 132.192 61.1745V51.4305C132.192 49.9905 131.936 48.9665 131.424 48.3585C130.944 47.7505 130.224 47.4465 129.264 47.4465C127.984 47.4465 126.96 47.8625 126.192 48.6945C125.424 49.4945 125.04 50.5825 125.04 51.9585V61.1745C125.04 64.0545 123.6 65.4945 120.72 65.4945ZM149.829 65.4945C148.485 65.4945 147.445 65.0945 146.709 64.2945C145.973 63.4945 145.605 62.3425 145.605 60.8385V45.6705C145.605 44.1665 145.973 43.0145 146.709 42.2145C147.445 41.4145 148.485 41.0145 149.829 41.0145C151.205 41.0145 152.261 41.4145 152.997 42.2145C153.765 43.0145 154.149 44.1665 154.149 45.6705V60.8385C154.149 62.3425 153.781 63.4945 153.045 64.2945C152.309 65.0945 151.237 65.4945 149.829 65.4945ZM149.829 37.6065C148.325 37.6065 147.157 37.2545 146.325 36.5505C145.525 35.8465 145.125 34.8225 145.125 33.4785C145.125 32.1665 145.525 31.1585 146.325 30.4545C147.157 29.7505 148.325 29.3985 149.829 29.3985C151.397 29.3985 152.581 29.7505 153.381 30.4545C154.181 31.1585 154.581 32.1665 154.581 33.4785C154.581 34.8225 154.181 35.8465 153.381 36.5505C152.581 37.2545 151.397 37.6065 149.829 37.6065Z" fill="#0062DB"/>
<mask id="mask0_33_8" style="mask-type:luminance" maskUnits="userSpaceOnUse" x="134" y="-1" width="50" height="50">
<path d="M158.179 3.39532C146.512 -3.26992 141.086 5.41456 139.073 8.34445C132.309 9.85146 135.665 12.4572 137.879 13.2936C139.328 13.7959 142.83 14.9305 145.044 15.7681C145.527 19.7868 147.029 23.3824 147.432 24.4291C147.432 23.4244 149.015 19.9168 149.82 18.2427C159.483 22.2614 166.296 32.5977 170.121 38.0392C168.671 41.0533 167.143 45.844 166.538 47.9375L173.703 44.2257L182.062 46.7002C182.062 42.6815 177.113 38.476 174.898 36.802C175.865 20.7272 168.58 11.0665 164.15 8.34445C164.634 6.3351 165.532 2.99568 166.538 2.15804C162.673 0.148688 159.588 2.34858 158.179 3.39532Z" fill="white" stroke="white" stroke-width="2" stroke-linecap="round" stroke-linejoin="round"/>
<path d="M148.626 10.819C149.945 10.819 151.014 9.71113 151.014 8.34446C151.014 6.9778 149.945 5.8699 148.626 5.8699C147.307 5.8699 146.238 6.9778 146.238 8.34446C146.238 9.71113 147.307 10.819 148.626 10.819Z" fill="black"/>
</mask>
<g mask="url(#mask0_33_8)">
<path d="M129.52 -5.26566H186.839V54.1239H129.52V-5.26566Z" fill="#0062DB"/>
</g>
</g>
<defs>
<clipPath id="clip0_33_8">
<rect width="183" height="83" fill="white"/>
</clipPath>
</defs>
</svg>
