<svg width="49" height="49" viewBox="0 0 49 49" fill="none" xmlns="http://www.w3.org/2000/svg">
<mask id="mask0_33_11" style="mask-type:luminance" maskUnits="userSpaceOnUse" x="0" y="-1" width="50" height="50">
<path d="M24.1793 3.39532C12.5124 -3.26992 7.08614 5.41456 5.07278 8.34445C-1.69093 9.85146 1.66465 12.4572 3.87862 13.2936C5.32833 13.7959 8.82961 14.9305 11.0436 15.7681C11.5272 19.7868 13.0295 23.3824 13.4319 24.4291C13.4319 23.4244 15.0153 19.9168 15.8202 18.2427C25.4833 22.2614 32.296 32.5977 36.1209 38.0392C34.6712 41.0533 33.1427 45.844 32.5384 47.9375L39.7034 44.2257L48.0625 46.7002C48.0625 42.6815 43.1127 38.476 40.8975 36.802C41.8648 20.7272 34.5804 11.0665 30.1501 8.34445C30.6338 6.3351 31.5318 2.99568 32.5384 2.15804C28.6729 0.148688 25.5884 2.34858 24.1793 3.39532Z" fill="white" stroke="white" stroke-width="2" stroke-linecap="round" stroke-linejoin="round"/>
<path d="M14.626 10.819C15.9451 10.819 17.0144 9.71113 17.0144 8.34446C17.0144 6.9778 15.9451 5.8699 14.626 5.8699C13.307 5.8699 12.2377 6.9778 12.2377 8.34446C12.2377 9.71113 13.307 10.819 14.626 10.819Z" fill="black"/>
</mask>
<g mask="url(#mask0_33_11)">
<path d="M-4.48047 -5.26566H52.8392V54.1239H-4.48047V-5.26566Z" fill="#0062DB"/>
</g>
</svg>
